<?xml version="1.0" encoding="utf-8"?>
<!-- Generator: Adobe Illustrator 26.5.0, SVG Export Plug-In . SVG Version: 6.00 Build 0)  -->
<svg version="1.1" id="Calque_1" xmlns="http://www.w3.org/2000/svg" xmlns:xlink="http://www.w3.org/1999/xlink" x="0px" y="0px"
	 viewBox="0 0 595.3 841.9" style="enable-background:new 0 0 595.3 841.9;" xml:space="preserve">
<style type="text/css">
	.st0{fill:#FCFCFC;}
</style>
<path class="st0" d="M337,327c0,0-39,48-37,51c2.8-3.1-14-51.6-14-51.6s-3.5-10.2-14.5-43.6h-39.7h-96.4H62.9l-7.3,31.4h54.7h13
	c35.2,0,56.7,14.5,50.7,40.3c-6.5,28.1-37.2,40-69.9,40H91.8l15.7-68.6H52.9L29.6,426.2h77.7c58.4,0,113.9-31.4,123.9-71.7
	c1.7-7.4,1.5-26-3-37c0-0.3-0.3-0.8-0.5-1.5c-0.2-0.3-0.5-2,0.5-2.3c0.5-0.3,1.5,0.8,1.5,1c0,0,0.5,1.3,1,2.3l49.4,142.6L406,314.5
	l53.2-0.3h13c35.2,0,56.9,14.5,50.9,40.3c-6.5,28.1-37.4,40-70.2,40h-12.5l16-68.6h-54.7l-23.2,100.3h77.7
	c58.4,0,114.4-31.4,123.6-71.7c9.5-40.3-31.5-71.7-90.4-71.7h-51.4h-64.4C342.8,319.8,337,327,337,327L337,327z"/>
<path class="st0" d="M281.8,460.1c-147.8,0-267.7,17.3-267.7,38.8c0,21.4,119.9,38.8,267.7,38.8c148.1,0,267.9-17.3,267.9-38.8
	C549.8,477.5,429.9,460.1,281.8,460.1z M272.3,512.7c-34,0-61.2-5.9-61.2-13s27.2-13,61.2-13c33.7,0,60.9,5.9,60.9,13
	C333.3,506.8,306,512.7,272.3,512.7z"/>
</svg>
